<mxfile host="app.diagrams.net" agent="Mozilla/5.0 (Macintosh; Intel Mac OS X 10_15_7) AppleWebKit/537.36 (KHTML, like Gecko) Chrome/136.0.0.0 Safari/537.36" version="27.0.5">
  <diagram name="Page-1" id="99A5JA4iOR1c2KBb1k-1">
    <mxGraphModel dx="1018" dy="689" grid="1" gridSize="10" guides="1" tooltips="1" connect="1" arrows="1" fold="1" page="1" pageScale="1" pageWidth="827" pageHeight="1169" math="0" shadow="0">
      <root>
        <mxCell id="0" />
        <mxCell id="1" parent="0" />
        <mxCell id="KkH-QEW_0u6g-gQDYyZl-6" style="edgeStyle=orthogonalEdgeStyle;rounded=0;orthogonalLoop=1;jettySize=auto;html=1;" edge="1" parent="1" source="KkH-QEW_0u6g-gQDYyZl-1" target="KkH-QEW_0u6g-gQDYyZl-2">
          <mxGeometry relative="1" as="geometry" />
        </mxCell>
        <mxCell id="KkH-QEW_0u6g-gQDYyZl-1" value="&lt;font style=&quot;font-size: 40px;&quot;&gt;&lt;b&gt;{}&lt;/b&gt;&lt;/font&gt;&lt;div&gt;&lt;font size=&quot;1&quot; style=&quot;&quot;&gt;Source Code&lt;/font&gt;&lt;/div&gt;" style="shape=note;whiteSpace=wrap;html=1;backgroundOutline=1;darkOpacity=0.05;size=15;" vertex="1" parent="1">
          <mxGeometry x="100" y="140" width="80" height="100" as="geometry" />
        </mxCell>
        <mxCell id="KkH-QEW_0u6g-gQDYyZl-7" style="edgeStyle=orthogonalEdgeStyle;rounded=0;orthogonalLoop=1;jettySize=auto;html=1;exitX=1;exitY=0.5;exitDx=0;exitDy=0;" edge="1" parent="1" source="KkH-QEW_0u6g-gQDYyZl-2" target="KkH-QEW_0u6g-gQDYyZl-3">
          <mxGeometry relative="1" as="geometry" />
        </mxCell>
        <mxCell id="KkH-QEW_0u6g-gQDYyZl-2" value="Parse to generalized Abstract Syntax Tree (AST)" style="rounded=1;whiteSpace=wrap;html=1;" vertex="1" parent="1">
          <mxGeometry x="210" y="160" width="120" height="60" as="geometry" />
        </mxCell>
        <mxCell id="KkH-QEW_0u6g-gQDYyZl-8" style="edgeStyle=orthogonalEdgeStyle;rounded=0;orthogonalLoop=1;jettySize=auto;html=1;exitX=1;exitY=0.5;exitDx=0;exitDy=0;entryX=0;entryY=0.5;entryDx=0;entryDy=0;" edge="1" parent="1" source="KkH-QEW_0u6g-gQDYyZl-3" target="KkH-QEW_0u6g-gQDYyZl-4">
          <mxGeometry relative="1" as="geometry" />
        </mxCell>
        <mxCell id="KkH-QEW_0u6g-gQDYyZl-3" value="Enrich CPG with Default Passes" style="rounded=1;whiteSpace=wrap;html=1;" vertex="1" parent="1">
          <mxGeometry x="360" y="160" width="120" height="60" as="geometry" />
        </mxCell>
        <mxCell id="KkH-QEW_0u6g-gQDYyZl-10" style="edgeStyle=orthogonalEdgeStyle;rounded=0;orthogonalLoop=1;jettySize=auto;html=1;exitX=0.25;exitY=1;exitDx=0;exitDy=0;entryX=0.5;entryY=1;entryDx=0;entryDy=0;" edge="1" parent="1" source="KkH-QEW_0u6g-gQDYyZl-4" target="KkH-QEW_0u6g-gQDYyZl-3">
          <mxGeometry relative="1" as="geometry" />
        </mxCell>
        <mxCell id="KkH-QEW_0u6g-gQDYyZl-24" style="edgeStyle=orthogonalEdgeStyle;rounded=0;orthogonalLoop=1;jettySize=auto;html=1;exitX=1;exitY=0.5;exitDx=0;exitDy=0;" edge="1" parent="1" source="KkH-QEW_0u6g-gQDYyZl-4">
          <mxGeometry relative="1" as="geometry">
            <mxPoint x="660" y="190" as="targetPoint" />
          </mxGeometry>
        </mxCell>
        <mxCell id="KkH-QEW_0u6g-gQDYyZl-4" value="Passes: Add Semantic Information" style="rounded=1;whiteSpace=wrap;html=1;" vertex="1" parent="1">
          <mxGeometry x="510" y="160" width="120" height="60" as="geometry" />
        </mxCell>
        <mxCell id="KkH-QEW_0u6g-gQDYyZl-9" style="edgeStyle=orthogonalEdgeStyle;rounded=0;orthogonalLoop=1;jettySize=auto;html=1;exitX=0;exitY=0;exitDx=80;exitDy=57.5;exitPerimeter=0;entryX=0.5;entryY=1;entryDx=0;entryDy=0;" edge="1" parent="1" source="KkH-QEW_0u6g-gQDYyZl-5" target="KkH-QEW_0u6g-gQDYyZl-4">
          <mxGeometry relative="1" as="geometry" />
        </mxCell>
        <mxCell id="KkH-QEW_0u6g-gQDYyZl-5" value="&lt;font style=&quot;font-size: 40px;&quot;&gt;&lt;b&gt;{}&lt;/b&gt;&lt;/font&gt;&lt;div&gt;&lt;font size=&quot;1&quot; style=&quot;&quot;&gt;Tagging logic&lt;/font&gt;&lt;/div&gt;" style="shape=note;whiteSpace=wrap;html=1;backgroundOutline=1;darkOpacity=0.05;size=15;" vertex="1" parent="1">
          <mxGeometry x="100" y="260" width="80" height="100" as="geometry" />
        </mxCell>
        <mxCell id="KkH-QEW_0u6g-gQDYyZl-25" style="edgeStyle=orthogonalEdgeStyle;rounded=0;orthogonalLoop=1;jettySize=auto;html=1;strokeWidth=3;fillColor=#1ba1e2;strokeColor=#006EAF;" edge="1" parent="1" source="KkH-QEW_0u6g-gQDYyZl-11">
          <mxGeometry relative="1" as="geometry">
            <mxPoint x="700" y="260" as="targetPoint" />
          </mxGeometry>
        </mxCell>
        <mxCell id="KkH-QEW_0u6g-gQDYyZl-26" value="&lt;font style=&quot;font-size: 13px;&quot;&gt;Query&lt;/font&gt;" style="edgeLabel;html=1;align=center;verticalAlign=bottom;resizable=0;points=[];" vertex="1" connectable="0" parent="KkH-QEW_0u6g-gQDYyZl-25">
          <mxGeometry x="-0.3946" relative="1" as="geometry">
            <mxPoint as="offset" />
          </mxGeometry>
        </mxCell>
        <mxCell id="KkH-QEW_0u6g-gQDYyZl-11" value="&lt;font style=&quot;font-size: 40px;&quot;&gt;&lt;b&gt;{}&lt;/b&gt;&lt;/font&gt;&lt;div&gt;&lt;font size=&quot;1&quot; style=&quot;&quot;&gt;Security goals rules&lt;/font&gt;&lt;/div&gt;" style="shape=note;whiteSpace=wrap;html=1;backgroundOutline=1;darkOpacity=0.05;size=15;" vertex="1" parent="1">
          <mxGeometry x="100" y="380" width="80" height="100" as="geometry" />
        </mxCell>
        <mxCell id="KkH-QEW_0u6g-gQDYyZl-23" value="" style="group" vertex="1" connectable="0" parent="1">
          <mxGeometry x="660" y="120.5" width="110" height="139" as="geometry" />
        </mxCell>
        <mxCell id="KkH-QEW_0u6g-gQDYyZl-17" style="edgeStyle=orthogonalEdgeStyle;rounded=0;orthogonalLoop=1;jettySize=auto;html=1;exitX=0.5;exitY=1;exitDx=0;exitDy=0;entryX=0;entryY=0;entryDx=0;entryDy=0;curved=1;fillColor=#1ba1e2;strokeColor=#006EAF;" edge="1" parent="KkH-QEW_0u6g-gQDYyZl-23" source="KkH-QEW_0u6g-gQDYyZl-12" target="KkH-QEW_0u6g-gQDYyZl-13">
          <mxGeometry relative="1" as="geometry" />
        </mxCell>
        <mxCell id="KkH-QEW_0u6g-gQDYyZl-12" value="" style="ellipse;whiteSpace=wrap;html=1;aspect=fixed;fillColor=#f8cecc;strokeColor=#b85450;" vertex="1" parent="KkH-QEW_0u6g-gQDYyZl-23">
          <mxGeometry y="19" width="40" height="40" as="geometry" />
        </mxCell>
        <mxCell id="KkH-QEW_0u6g-gQDYyZl-18" style="edgeStyle=orthogonalEdgeStyle;rounded=0;orthogonalLoop=1;jettySize=auto;html=1;exitX=1;exitY=0.5;exitDx=0;exitDy=0;entryX=0.5;entryY=1;entryDx=0;entryDy=0;curved=1;fillColor=#d80073;strokeColor=#A50040;" edge="1" parent="KkH-QEW_0u6g-gQDYyZl-23" source="KkH-QEW_0u6g-gQDYyZl-13" target="KkH-QEW_0u6g-gQDYyZl-15">
          <mxGeometry relative="1" as="geometry" />
        </mxCell>
        <mxCell id="KkH-QEW_0u6g-gQDYyZl-19" style="edgeStyle=orthogonalEdgeStyle;rounded=0;orthogonalLoop=1;jettySize=auto;html=1;exitX=0.5;exitY=0;exitDx=0;exitDy=0;entryX=0.5;entryY=1;entryDx=0;entryDy=0;curved=1;fillColor=#6a00ff;strokeColor=#3700CC;" edge="1" parent="KkH-QEW_0u6g-gQDYyZl-23" source="KkH-QEW_0u6g-gQDYyZl-13" target="KkH-QEW_0u6g-gQDYyZl-16">
          <mxGeometry relative="1" as="geometry" />
        </mxCell>
        <mxCell id="KkH-QEW_0u6g-gQDYyZl-20" style="edgeStyle=orthogonalEdgeStyle;rounded=0;orthogonalLoop=1;jettySize=auto;html=1;exitX=1;exitY=0;exitDx=0;exitDy=0;entryX=0;entryY=0.5;entryDx=0;entryDy=0;curved=1;fillColor=#6a00ff;strokeColor=#3700CC;" edge="1" parent="KkH-QEW_0u6g-gQDYyZl-23" source="KkH-QEW_0u6g-gQDYyZl-13" target="KkH-QEW_0u6g-gQDYyZl-15">
          <mxGeometry relative="1" as="geometry">
            <Array as="points">
              <mxPoint x="60" y="96" />
              <mxPoint x="60" y="64" />
            </Array>
          </mxGeometry>
        </mxCell>
        <mxCell id="KkH-QEW_0u6g-gQDYyZl-13" value="" style="ellipse;whiteSpace=wrap;html=1;aspect=fixed;fillColor=#d5e8d4;strokeColor=#82b366;" vertex="1" parent="KkH-QEW_0u6g-gQDYyZl-23">
          <mxGeometry x="4" y="89" width="50" height="50" as="geometry" />
        </mxCell>
        <mxCell id="KkH-QEW_0u6g-gQDYyZl-21" style="edgeStyle=orthogonalEdgeStyle;rounded=0;orthogonalLoop=1;jettySize=auto;html=1;exitX=0;exitY=1;exitDx=0;exitDy=0;entryX=1;entryY=0.5;entryDx=0;entryDy=0;fillColor=#008a00;strokeColor=#005700;curved=1;" edge="1" parent="KkH-QEW_0u6g-gQDYyZl-23" source="KkH-QEW_0u6g-gQDYyZl-14" target="KkH-QEW_0u6g-gQDYyZl-12">
          <mxGeometry relative="1" as="geometry" />
        </mxCell>
        <mxCell id="KkH-QEW_0u6g-gQDYyZl-14" value="" style="ellipse;whiteSpace=wrap;html=1;aspect=fixed;fillColor=#f8cecc;strokeColor=#b85450;" vertex="1" parent="KkH-QEW_0u6g-gQDYyZl-23">
          <mxGeometry x="80" y="9" width="30" height="30" as="geometry" />
        </mxCell>
        <mxCell id="KkH-QEW_0u6g-gQDYyZl-22" style="edgeStyle=orthogonalEdgeStyle;rounded=0;orthogonalLoop=1;jettySize=auto;html=1;exitX=1;exitY=0.5;exitDx=0;exitDy=0;entryX=1;entryY=0.5;entryDx=0;entryDy=0;fillColor=#6a00ff;strokeColor=#3700CC;curved=1;" edge="1" parent="KkH-QEW_0u6g-gQDYyZl-23" source="KkH-QEW_0u6g-gQDYyZl-15" target="KkH-QEW_0u6g-gQDYyZl-14">
          <mxGeometry relative="1" as="geometry" />
        </mxCell>
        <mxCell id="KkH-QEW_0u6g-gQDYyZl-15" value="" style="ellipse;whiteSpace=wrap;html=1;aspect=fixed;fillColor=#dae8fc;strokeColor=#6c8ebf;" vertex="1" parent="KkH-QEW_0u6g-gQDYyZl-23">
          <mxGeometry x="80" y="49" width="30" height="30" as="geometry" />
        </mxCell>
        <mxCell id="KkH-QEW_0u6g-gQDYyZl-16" value="" style="ellipse;whiteSpace=wrap;html=1;aspect=fixed;fillColor=#e1d5e7;strokeColor=#9673a6;" vertex="1" parent="KkH-QEW_0u6g-gQDYyZl-23">
          <mxGeometry x="50.5" width="19" height="19" as="geometry" />
        </mxCell>
      </root>
    </mxGraphModel>
  </diagram>
</mxfile>
